# xmcd CD database file
#
# Track frame offsets:
#	150
#	8156
#	22364
#	33481
#	46484
#	57920
#	73771
#	87137
#	96801
#	106850
#
# Disc length: 1565 seconds
#
# Revision: 1
# Processed by: cddbd v1.5.2PL0 Copyright (c) Steve Scherf et al.
# Submitted via: CDex 1.70beta2
#
DISCID=80061b0a
DTITLE=The Appalachian Pickers - Old Timey Country
DYEAR=1900
DGENRE=
TTITLE0=Rocky Top
TTITLE1=Faded Love
TTITLE2=I Can't Help It
TTITLE3=Tennesssee Waltz
TTITLE4=She Still Thinks I Care
TTITLE5=Blue Eyes Crying In The Rain
TTITLE6=Help Me Make It Through The Night
TTITLE7=King Of The Road
TTITLE8=Green, Green Grass Of Home
TTITLE9=Sweet Dreams
EXTD=
EXTT0=
EXTT1=
EXTT2=
EXTT3=
EXTT4=
EXTT5=
EXTT6=
EXTT7=
EXTT8=
EXTT9=
PLAYORDER=
